<svg xmlns="http://www.w3.org/2000/svg" version="1.1" xmlns:xlink="http://www.w3.org/1999/xlink" xmlns:svgjs="http://svgjs.dev/svgjs" width="2000" height="1247" viewBox="0 0 2000 1247"><g transform="matrix(1,0,0,1,-1.2121212121212466,249.12907540997003)"><svg viewBox="0 0 396 247" data-background-color="#ffffff" preserveAspectRatio="xMidYMid meet" height="1247" width="2000" xmlns="http://www.w3.org/2000/svg" xmlns:xlink="http://www.w3.org/1999/xlink"><g id="tight-bounds" transform="matrix(1,0,0,1,0.2400000000000091,-0.09999999999999432)"><svg viewBox="0 0 395.52 247.2" height="247.2" width="395.52"><g><svg></svg></g><g><svg viewBox="0 0 395.52 247.2" height="247.2" width="395.52"><g transform="matrix(1,0,0,1,75.54432,49.149478331452215)"><svg viewBox="0 0 244.43135999999998 148.90104333709556" height="148.90104333709556" width="244.43135999999998"><g><svg viewBox="0 0 244.43135999999998 148.90104333709556" height="148.90104333709556" width="244.43135999999998"><g transform="matrix(1,0,0,1,0,92.02681839591908)"><svg viewBox="0 0 244.43135999999998 56.87422494117647" height="56.87422494117647" width="244.43135999999998"><g><svg viewBox="0 0 244.43135999999998 56.87422494117647" height="56.87422494117647" width="244.43135999999998"><g><svg viewBox="0 0 244.43135999999998 56.87422494117647" height="56.87422494117647" width="244.43135999999998"><g transform="matrix(1,0,0,1,0,0)"><svg width="244.43135999999998" viewBox="1.25 -36.79999923706055 191.22999572753906 44.5" height="56.87422494117647" data-palette-color="#ba480a"><path d="M19.25 0L12.25 0 12.25-29 1.25-28.5 1.25-35.4 30.5-35.4 30.5-28.5 19.25-29 19.25-8 19.8-3 19.25 0ZM39.55 0L32.55 0 32.55-27.4 31.55-32.4 32.55-35.4 39.55-35.4 39.55-27.3 39.05-21.75 39.55-21.5Q40.15-22.4 41.77-23.28 43.4-24.15 46.05-24.15L46.05-24.15Q50.55-24.15 52.8-21.6 55.05-19.05 55.05-14.45L55.05-14.45 55.05-7.95 56.1-3.05 55.05 0 48.05 0 48.05-14.65Q48.05-16.55 46.72-17.57 45.4-18.6 43.65-18.6L43.65-18.6 39.55-17.15 39.55 0ZM69.7-31.45L64.4-26.1 59.05-31.45 64.4-36.8 69.7-31.45ZM67.84 0L60.9 0 60.9-16.55 59.85-20.55 60.85-23.6 67.84-23.6 67.84 0ZM93.74 0L71.39 0 71.39-3 84.24-18.65 71.44-18.65 71.44-23.65 92.84-23.65 92.84-20.45 83.19-7.85 80.44-5 81.94-5 93.74-6 93.74 0ZM104.79 0L100.74 0 99.74-6.3Q98.34-8.05 97.54-10.8 96.74-13.55 96.74-17.65L96.74-17.65Q96.74-23.2 97.99-26.75 99.24-30.3 101.39-32.3 103.54-34.3 106.22-35.08 108.89-35.85 111.69-35.85L111.69-35.85Q114.64-35.85 117.32-35.05 119.99-34.25 122.09-32.25 124.19-30.25 125.42-26.7 126.64-23.15 126.64-17.65L126.64-17.65Q126.64-13.35 125.64-10.58 124.64-7.8 123.04-6.05L123.04-6.05Q122.19-5.1 120.72-4.13 119.24-3.15 118.09-2.7L118.09-2.7 118.19-2.45 125.24-0.45 130.59 2.1 127.09 7.7Q127.09 7.7 125.92 7.18 124.74 6.65 122.92 5.85 121.09 5.05 119.12 4.2 117.14 3.35 115.47 2.63 113.79 1.9 112.99 1.55L112.99 1.55Q111.19 0.8 109.42 0.4 107.64 0 104.79 0L104.79 0ZM107.69-6.45L107.69-6.45 111.64-6.45Q114.29-6.45 115.97-7.93 117.64-9.4 118.42-11.95 119.19-14.5 119.19-17.65L119.19-17.65Q119.19-22.95 117.29-25.9 115.39-28.85 111.69-28.85L111.69-28.85Q108.04-28.85 106.14-25.85 104.24-22.85 104.24-17.65L104.24-17.65Q104.24-15.3 104.77-12.93 105.29-10.55 106.09-8.78 106.89-7 107.69-6.45ZM138.59 0.5L138.59 0.5Q135.59 0.5 133.96-0.65 132.34-1.8 131.71-3.98 131.09-6.15 131.09-9.2L131.09-9.2 131.09-23.65 138.09-23.65 138.09-9Q138.09-6.95 138.86-6 139.64-5.05 141.49-5.05L141.49-5.05Q143.84-5.05 145.21-6.85 146.59-8.65 146.59-11.05L146.59-11.05 146.59-23.65 153.59-23.65 153.59-8.05 154.64-3.05 153.59 0 147.14 0 147.14-2.45 146.64-2.7Q145.99-2.05 144.76-1.3 143.54-0.55 141.96-0.03 140.39 0.5 138.59 0.5ZM168.44-31.45L163.14-26.1 157.79-31.45 163.14-36.8 168.44-31.45ZM166.59 0L159.64 0 159.64-16.55 158.59-20.55 159.59-23.6 166.59-23.6 166.59 0ZM192.48 0L170.13 0 170.13-3 182.98-18.65 170.18-18.65 170.18-23.65 191.58-23.65 191.58-20.45 181.93-7.85 179.18-5 180.68-5 192.48-6 192.48 0Z" opacity="1" transform="matrix(1,0,0,1,0,0)" fill="#ffffff" class="undefined-text-0" data-fill-palette-color="primary" id="text-0"></path></svg></g></svg></g></svg></g></svg></g><g transform="matrix(1,0,0,1,93.70553839091968,0)"><svg viewBox="0 0 57.0202832181606 78.6001788687059" height="78.6001788687059" width="57.0202832181606"><g><svg xmlns="http://www.w3.org/2000/svg" xmlns:xlink="http://www.w3.org/1999/xlink" version="1.1" x="0" y="0" viewBox="14.33366870880127 6.730503082275391 64.76409912109375 89.27471923828125" enable-background="new 0 0 96.314 100" xml:space="preserve" height="78.6001788687059" width="57.0202832181606" class="icon-icon-0" data-fill-palette-color="accent" id="icon-0"><g fill="#ba3b0a" data-fill-palette-color="accent"><path d="M54.384 32.738c0.853 0.031 1.701 0.052 2.553 0.098 0.801 0.044 1.599 0.132 2.397 0.171 0.954 0.047 1.91 0.059 2.866 0.091 1.728 0.058 3.457 0.091 5.183 0.196 0.559 0.034 1.104 0.236 1.671 0.075 0.269-0.075 0.541-0.163 0.814-0.172 0.491-0.017 0.691 0.335 0.493 0.779-0.249 0.555-0.768 0.772-1.262 1.006-0.361 0.171-0.637 0.374-0.801 0.775-0.178 0.431-0.612 0.615-1.062 0.619-0.429 0.004-0.796 0.089-1.181 0.299-0.924 0.503-1.881 0.941-2.818 1.412-0.278 0.14-0.559 0.287-0.813 0.467-0.099 0.07-0.177 0.24-0.179 0.366-0.018 1.126 0.013 2.254-0.03 3.378-0.021 0.626-0.188 1.247-0.237 1.874-0.136 1.596-0.679 3.093-1.083 4.623-0.139 0.516-0.374 1.004-0.532 1.516-0.033 0.106 0.059 0.354 0.135 0.375 0.602 0.154 1.215 0.25 1.815 0.402 0.452 0.114 0.884 0.314 1.337 0.421 0.921 0.218 1.845 0.4 2.808 0.3 0.741-0.078 1.496-0.027 2.233-0.129 1.024-0.139 1.895-0.589 2.559-1.438 0.326-0.418 0.533-0.771 0.359-1.317-0.412-1.295-0.354-2.643-0.364-3.979-0.007-0.846 0.002-1.691 0.002-2.537 0-0.803-0.074-1.613 0.019-2.405 0.1-0.866 0.318-1.722 0.548-2.566 0.12-0.445 0.785-0.843 1.192-0.827 0.572 0.023 1.131 0.395 1.289 0.91 0.281 0.914 0.604 1.824 0.777 2.759 0.14 0.74 0.087 1.516 0.118 2.276 0.005 0.104 0.001 0.206 0.001 0.406 0.174-0.102 2.61 1.353 2.723 2.066 0.051 0.318 0.26 0.488 0.597 0.482 0.241-0.004 0.312 0.12 0.403 0.357 0.526 1.328-0.188 2.386-0.751 3.441-0.313 0.588-0.85 1.063-1.307 1.569-0.136 0.147-0.332 0.289-0.523 0.332-0.813 0.187-1.049 0.771-1.038 1.495 0.007 0.441-0.171 0.766-0.448 1.072-1.479 1.645-3.343 2.635-5.419 3.322-0.923 0.309-1.894 0.518-2.719 1.122-0.779 0.573-1.725 0.778-2.686 0.866-0.604 0.055-0.614 0.063-0.52 0.665 0.253 1.588 0.536 3.172 0.771 4.765 0.164 1.114 0.281 2.237 0.392 3.359 0.109 1.098 0.213 2.197 0.267 3.298 0.045 0.949-0.006 1.902 0.021 2.853 0.041 1.58 0.172 3.158 0.145 4.734-0.022 1.123-0.245 2.243-0.384 3.363-0.05 0.412-0.162 0.823-0.148 1.232 0.008 0.26 0.188 0.514 0.295 0.771-0.879 0.351-0.812 0.358-0.928 1.343-0.063 0.53-0.334 1.079-0.646 1.528-0.738 1.073-1.412 2.181-1.997 3.343-0.298 0.589-0.27 0.633 0.228 1.043 0.091 0.075 0.198 0.155 0.24 0.258 0.313 0.745 0.341 1.534 0.216 2.313-0.073 0.448-0.638 0.688-1.292 0.646-0.731-0.05-1.458-0.09-2.146 0.242-0.093 0.045-0.211 0.055-0.288 0.116-0.848 0.69-1.878 0.61-2.864 0.656-1.228 0.055-2.447 0.012-3.674 0.266-0.968 0.201-1.972 0.156-2.968-0.106-0.46-0.123-0.999 0.052-1.502 0.084-0.204 0.013-0.433 0.061-0.611-0.008-0.73-0.281-1.476-0.088-2.214-0.111-0.833-0.026-1.664-0.105-2.497-0.147-0.158-0.009-0.323 0.035-0.479 0.074-0.536 0.134-1.037 0.208-1.615 0.041-0.534-0.155-1.152-0.109-1.717-0.031-0.488 0.066-0.938 0.101-1.438 0.015-0.604-0.104-1.257-0.104-1.858 0.007-0.58 0.104-1.134 0.137-1.721 0.101-0.813-0.049-1.643-0.021-2.456 0.059-0.862 0.084-1.562-0.146-1.957-0.924-0.409-0.81-1.153-0.738-1.74-0.566-0.758 0.22-1.452 0.271-2.185 0.045-0.877-0.271-1.732-0.176-2.604 0.053-0.264 0.068-0.587 0.039-0.847-0.052-1.22-0.429-2.462-0.396-3.716-0.253-0.856 0.097-1.713 0.199-2.537-0.217-0.396-0.201-0.727-0.646-0.715-1.095 0.017-0.543 0.366-0.749 0.914-0.717 0.899 0.054 1.805 0.041 2.706-0.004 1.214-0.063 2.42-0.166 3.628 0.101 0.386 0.086 0.805 0.023 1.208 0.024 1.021 0.002 2.038 0.008 3.059-0.004 0.368-0.004 0.736-0.071 1.106-0.076 0.929-0.012 1.857-0.004 2.787-0.004 0.897 0 1.795 0.035 2.69-0.01 1.005-0.054 2.006-0.173 3.007-0.273 0.16-0.016 0.315-0.082 0.468-0.143 0.334-0.136 0.401-0.32 0.269-0.695-0.383-1.095-0.715-2.209-1.342-3.196-0.462-0.729-0.923-1.467-1.462-2.138-0.289-0.358-0.737-0.571-1.25-0.601-0.352-0.017-0.712-0.081-1.047-0.19-0.741-0.245-0.971-1.22-0.344-1.662 0.51-0.358 0.545-0.809 0.552-1.308 0.023-1.61 0.03-3.223 0.042-4.833 0.003-0.4-0.017-0.804 0.001-1.203 0.03-0.632 0.085-1.265 0.123-1.896 0.006-0.104 0.004-0.225-0.044-0.309-0.124-0.213-0.239-0.48-0.434-0.584-0.098-0.051-2.477-2.743-2.089-3.964 0.221-0.688 0.27-1.429 0.476-2.12 0.32-1.072 0.677-2.138 1.081-3.182 0.414-1.069 0.834-2.147 1.377-3.153 0.581-1.076 0.979-2.271 1.92-3.144 0.309-0.287 0.466-0.744 0.673-1.133 0.608-1.14 1.251-2.242 2.12-3.221 0.487-0.549 0.792-1.258 1.182-1.893 0.063-0.103 0.125-0.223 0.222-0.278 0.774-0.47 0.908-1.224 0.945-2.036 0.048-1.067 0.083-2.136 0.187-3.198 0.082-0.853 0.266-1.695 0.38-2.544 0.074-0.546 0.123-1.098 0.148-1.648 0.053-1.061 0.152-2.125 0.1-3.18-0.072-1.392-0.272-2.778-0.42-4.167-0.099-0.905 0.078-1.773 0.353-2.629 0.032-0.099 0.102-0.206 0.084-0.297-0.165-0.947 0.536-1.379 1.125-1.847 0.479-0.379 0.79-0.292 1.275 0.024 0.229 0.15 0.584 0.151 0.882 0.154 0.431 0.005 0.863-0.037 1.292-0.079 1.092-0.107 2.18-0.257 3.274-0.33 0.741-0.049 1.491 0.003 2.238 0.016 0.147 0.002 0.294 0.037 0.442 0.045 1.527 0.092 3.059 0.147 4.582 0.288 0.789 0.072 1.572 0.259 2.34 0.463 0.225 0.06 0.474 0.33 0.547 0.556 0.056 0.172-0.092 0.522-0.255 0.627-0.351 0.227-0.766 0.36-1.162 0.509-0.543 0.205-1.096 0.383-1.639 0.587-0.122 0.045-0.222 0.154-0.33 0.233C54.344 32.636 54.364 32.687 54.384 32.738zM32.157 69.813c0.799-0.676 2.508-5.623 2.688-6.03 0.207-0.468 0.77-0.976 1.25-0.845 0.454 0.125 0.728-0.013 0.703 0.404-0.014 0.253-0.484 1.447-0.547 1.689-0.227 0.896-3.021 8.979-3.124 10.015-0.062 0.618-0.146 1.235-0.179 1.854-0.044 0.815-0.076 1.637-0.063 2.453 0.015 0.767 0.096 1.529 0.143 2.297 0.018 0.293 0.056 0.589 0.025 0.877-0.041 0.395 0.09 0.526 0.496 0.516 0.458-0.014 0.917 0.031 1.376 0.033 0.966 0.006 1.931 0.021 2.894-0.006 0.896-0.025 1.789-0.144 2.684-0.149 1.209-0.01 2.418 0.058 3.628 0.067 0.521 0.004 1.042-0.07 1.563-0.078 0.325-0.006 0.647 0.059 0.975 0.07 0.292 0.011 0.586-0.016 0.88-0.015 0.845 0.004 1.688 0.015 2.529 0.021 1.385 0.007 2.769 0.02 4.152 0.015 0.949-0.004 1.901-0.011 2.853-0.058 0.727-0.034 1.446-0.17 2.171-0.194 1.09-0.038 2.185-0.017 3.273-0.031 0.098-0.001 0.247-0.056 0.283-0.13 0.159-0.329 0.354-0.663 0.417-1.017 0.113-0.647 0.17-1.31 0.209-1.966 0.068-1.196 0.116-2.396 0.158-3.597 0.015-0.384-0.024-0.769-0.034-1.151-0.008-0.268 0.021-0.534-0.012-0.797-0.086-0.734-0.287-1.457-0.105-2.213 0.077-0.322 0.06-0.679 0.038-1.016-0.066-1.057-0.136-2.107-0.24-3.159-0.11-1.092-0.255-2.181-0.407-3.268-0.11-0.793-0.237-1.587-0.396-2.37-0.317-1.553-0.64-3.104-1.012-4.643-0.128-0.523 0.01-0.935 0.293-1.322 0.054-0.071 0.347-0.083 0.397-0.02 0.191 0.237 0.31 0.532 0.491 0.779 0.154 0.214 0.322 0.472 0.549 0.572 0.951 0.426 1.872 0.207 2.759-0.237 0.383-0.192 0.737-0.444 1.132-0.604 1.091-0.438 2.21-0.81 3.291-1.271 1.276-0.545 2.493-1.192 3.336-2.366 0.466-0.646 0.409-1.68-0.148-2.189-0.063-0.058-0.158-0.094-0.243-0.105-0.661-0.107-1.218 0.239-1.409 0.885-0.142 0.479-0.455 0.754-0.946 0.828-0.498 0.077-1.006 0.116-1.49 0.24-1.373 0.352-2.778 0.395-4.167 0.316-1.238-0.066-2.469-0.351-3.695-0.564-0.51-0.09-1.015-0.229-1.506-0.393-0.342-0.113-0.577 0.025-0.734 0.26-0.255 0.38-0.607 0.476-1.021 0.497-0.462 0.024-0.923 0.065-1.386 0.088-1.232 0.062-2.469 0.125-3.702 0.163-0.42 0.013-0.842-0.066-1.263-0.07-1.375-0.01-2.75-0.004-4.125-0.007-0.224 0-0.451 0.008-0.672-0.022-1.173-0.174-2.341-0.392-3.519-0.521-0.813-0.091-1.641-0.051-2.457-0.102-0.562-0.035-1.189 0.291-1.501 0.758-0.368 0.552-0.784 1.072-1.188 1.602-0.468 0.616-0.96 1.216-1.41 1.846-0.498 0.698-0.956 1.428-1.438 2.137-0.437 0.641-0.902 1.259-1.313 1.912-0.33 0.528-0.594 1.099-0.883 1.65-0.375 0.721-0.788 1.426-1.104 2.171-0.308 0.72-0.51 1.482-0.763 2.226-0.143 0.421-0.308 0.83-0.438 1.255C30.953 68.428 31.887 70.038 32.157 69.813zM44.872 40.282c-0.801 0.056-1.695 0.107-2.586 0.183-0.539 0.045-0.848 0.355-0.895 0.762-0.155 1.342-0.342 2.681-0.493 4.024-0.091 0.797-0.205 1.601-0.189 2.399 0.011 0.579 0.106 1.138-0.1 1.713-0.25 0.697 0.044 1.388 0.609 1.541 0.159 0.043 0.344-0.012 0.516-0.002 1.584 0.09 3.169 0.186 4.754 0.273 0.578 0.032 1.156 0.041 1.731 0.081 0.666 0.047 1.33 0.167 1.995 0.164 0.843-0.005 1.683-0.1 2.521-0.16 0.234-0.017 0.47-0.069 0.703-0.067 0.646 0.011 1.306 0.125 1.938 0.047 1.229-0.152 2.435-0.455 3.547-1.024 0.154-0.078 0.305-0.235 0.375-0.391 0.167-0.36 0.296-0.74 0.421-1.118 0.304-0.912 0.604-1.826 0.891-2.743 0.35-1.123 0.553-2.271 0.564-3.45 0.007-0.37 0.001-0.739 0.001-1.109 0.002-0.529 0.032-1.063-0.005-1.587-0.042-0.588-0.353-0.752-0.89-0.531-0.151 0.063-0.3 0.146-0.458 0.176-1.275 0.236-2.552 0.469-3.83 0.685-0.395 0.066-0.801 0.067-1.2 0.113-0.621 0.072-1.238 0.223-1.857 0.222-1.101-0.001-2.197-0.124-3.296-0.133-0.948-0.008-1.898 0.1-2.849 0.1C46.187 40.448 45.578 40.347 44.872 40.282zM53.287 31.337c-0.003-0.065-0.007-0.131-0.01-0.196-0.154-0.076-0.302-0.198-0.463-0.219-0.548-0.07-1.101-0.126-1.649-0.147-0.624-0.024-1.25-0.008-1.875-0.005-0.981 0.004-1.993-0.126-2.941 0.054-1.074 0.203-2.144 0.136-3.207 0.242-0.653 0.064-1.265 0.244-1.591 0.907-0.321 0.655-0.502 1.336-0.427 2.075 0.033 0.325 0.042 0.653 0.059 0.98 0.051 1.096-0.053 2.2 0.204 3.286 0.064 0.271 0.166 0.432 0.454 0.45 0.4 0.025 0.802 0.079 1.2 0.085 0.949 0.014 1.899 0.02 2.85 0.007 1.476-0.021 2.949-0.067 4.427-0.085 0.385-0.005 0.771 0.08 1.156 0.076 0.72-0.007 1.438-0.062 2.155-0.074 1.337-0.022 2.652-0.203 3.941-0.549 1.1-0.295 2.25-0.378 3.284-0.947 1.313-0.723 2.675-1.361 4.014-2.04 0.111-0.057 0.206-0.147 0.309-0.222-0.001-0.046-0.003-0.092-0.004-0.138-0.361-0.089-0.724-0.205-1.093-0.261-0.337-0.052-0.685-0.039-1.027-0.059-0.919-0.056-1.837-0.124-2.756-0.172-1.092-0.057-2.184-0.101-3.272-0.146-0.575-0.024-1.151-0.036-1.728-0.065-0.233-0.012-0.47-0.061-0.705-0.086-0.276-0.03-0.558-0.072-0.836-0.072-0.251 0-0.501 0.052-0.752 0.074-0.964 0.086-4.325-1.59-3.418-1.721 0.78-0.113 1.543-0.36 2.31-0.571C52.364 31.664 52.823 31.491 53.287 31.337zM34.922 85.184c0.239 0.398 0.449 0.717 0.628 1.054 0.858 1.605 1.707 3.219 2.153 5.007 0.14 0.56 0.409 0.668 0.869 0.313 0.689-0.531 1.344-1.117 1.972-1.722 0.405-0.39 0.729-0.862 1.105-1.284 0.333-0.369 0.746-0.527 1.247-0.39 0.111 0.03 0.233 0.052 0.351 0.044 1.022-0.069 2.044-0.146 3.066-0.223 0.354-0.025 0.721-0.008 1.066-0.076 1.229-0.24 2.441-0.559 3.677-0.749 0.717-0.11 1.45-0.11 2.18-0.191 0.726-0.082 1.457-0.098 2.186-0.262 0.825-0.187 1.265 0.349 1.121 1.135-0.114 0.632-0.106 1.181 0.231 1.735 0.357 0.587 0.742 1.148 1.338 1.514 0.169 0.104 0.505 0.191 0.604 0.104 0.399-0.344 0.817-0.715 1.081-1.16 0.597-1.01 1.084-2.077 1.652-3.104 0.316-0.57 0.726-1.09 1.057-1.652 0.248-0.424 0.115-0.654-0.365-0.683-0.313-0.017-0.625 0.026-0.938 0.036-0.533 0.018-1.063 0.033-1.599 0.042-0.43 0.006-0.859-0.034-1.284 0.009-0.928 0.092-1.851 0.262-2.777 0.325-0.691 0.048-1.395-0.012-2.092-0.041-0.324-0.014-0.646-0.1-0.97-0.096-1.084 0.013-2.168 0.065-3.252 0.075-0.531 0.005-1.063-0.076-1.596-0.074-0.907 0.003-1.816 0.063-2.728 0.06-0.743-0.002-1.485-0.075-2.229-0.085-0.384-0.004-0.771 0.111-1.15 0.084-0.548-0.039-1.084-0.15-1.63 0.037-0.204 0.07-0.441 0.057-0.664 0.059-1.225 0.015-2.445 0.016-3.668 0.03C35.393 85.057 35.219 85.121 34.922 85.184zM41.3 91.673c0.254 0.063 0.396 0.134 0.528 0.124 0.48-0.029 0.958-0.084 1.438-0.135 0.939-0.1 1.879-0.239 2.82-0.293 1.634-0.094 3.271-0.145 4.907-0.191 1.462-0.043 2.901-0.228 4.314-0.604 0.15-0.041 0.308-0.07 0.459-0.105-0.195-1.108-0.899-1.741-1.956-1.739-0.563 0.002-1.122 0.06-1.682 0.125-0.648 0.074-1.299 0.172-1.941 0.289-0.719 0.131-1.421 0.356-2.144 0.436-1.54 0.166-3.087 0.259-4.629 0.394-0.264 0.023-0.599 0.03-0.767 0.188C42.19 90.589 41.8 91.1 41.3 91.673zM72.941 38.126c-0.073 0.011-0.147 0.022-0.223 0.034-0.134 0.687-0.342 1.368-0.384 2.06-0.063 1.066-0.024 2.139-0.011 3.208 0.013 0.854 0.05 1.703 0.093 2.554 0.015 0.265 0.08 0.528 0.144 0.902 0.383-0.645 0.717-1.171 1.013-1.718 0.152-0.281 0.309-0.592 0.337-0.901 0.058-0.602-0.005-1.214 0.038-1.818 0.089-1.248-0.265-2.42-0.576-3.597C73.302 38.59 73.089 38.367 72.941 38.126zM73.667 48.932c0.527-0.443 0.982-0.769 1.367-1.163 0.449-0.459 0.825-0.99 1.256-1.469 0.281-0.311 0.371-0.663 0.346-1.06-0.021-0.326-1.334-0.615-1.442-0.462-0.586 0.818-0.636 0.802-1.082 1.695C73.765 47.167 73.608 47.978 73.667 48.932zM75.334 50.371c0.655-0.418 1.427-0.646 1.75-1.406 0.281-0.661 0.54-1.333 0.772-2.013 0.036-0.105-0.098-0.305-0.204-0.403-0.044-0.04-0.273 0.04-0.343 0.126-0.709 0.879-1.423 1.756-2.092 2.665C74.991 49.651 74.981 50.038 75.334 50.371z" fill="#ffffff" data-fill-palette-color="accent"></path><path d="M56.974 19.035c0.108-0.734 0.222-1.468 0.331-2.203 0.151-1.038 0.295-2.079 0.461-3.115 0.111-0.701 0.227-1.405 0.397-2.092 0.271-1.072 0.57-2.139 0.903-3.193 0.139-0.441 0.393-0.845 0.598-1.265 0.021-0.038 0.061-0.091 0.092-0.093 0.657-0.043 1.223-0.536 1.969-0.26 0.709 0.263 1.487 0.337 2.239 0.482 0.815 0.157 1.146 0.686 1 1.507-0.151 0.86-0.545 1.61-0.901 2.392-0.469 1.018-0.787 2.104-1.183 3.155-0.13 0.346-0.293 0.678-0.44 1.016-0.355 0.801-0.671 1.624-1.077 2.398-0.462 0.881-0.979 1.739-1.522 2.571-0.403 0.617-1.489 0.602-2.188 0.112C57.135 20.083 56.934 19.648 56.974 19.035z" fill="#ffffff" data-fill-palette-color="accent"></path><path d="M57.645 25.353c-1.076 0.008-1.911-0.84-2.188-1.85-0.1-0.365 0.125-0.73 0.479-0.911 1.282-0.66 2.113-0.119 2.567 1.132 0.103 0.276 0.121 0.615 0.069 0.905C58.469 25.208 58.219 25.373 57.645 25.353z" fill="#ffffff" data-fill-palette-color="accent"></path><path d="M48.123 49.721c-0.381-0.151-0.791-0.255-1.133-0.467-0.286-0.178-0.514-0.189-0.786-0.044-0.854 0.458-1.778 0.199-2.272-0.653-0.287-0.494-0.356-0.992-0.003-1.504 0.104-0.146 0.115-0.36 0.162-0.544 0.189-0.743 0.8-1.017 1.461-0.644 0.153 0.086 0.284 0.211 0.425 0.321 0.791 0.625 1.586 1.242 2.364 1.879 0.271 0.221 0.654 0.372 0.61 0.844C48.902 49.425 48.673 49.65 48.123 49.721z" fill="#ffffff" data-fill-palette-color="accent"></path><path d="M52.157 44.252c-0.615 0.006-1.23-0.614-1.23-1.242-0.001-0.49 0.597-1.021 1.123-1.002 0.471 0.018 0.928 0.645 0.941 1.29C53.005 43.843 52.651 44.247 52.157 44.252z" fill="#ffffff" data-fill-palette-color="accent"></path><path d="M56.742 43.703c-0.062-0.603 0.511-1.146 0.924-1.161 0.492-0.018 1.063 0.661 1.078 1.289 0.014 0.47-0.36 0.928-0.771 0.943C57.253 44.803 56.766 44.379 56.742 43.703z" fill="#ffffff" data-fill-palette-color="accent"></path></g></svg></g></svg></g><g></g></svg></g></svg></g><g><path d="M112.823 35.723A122.216 122.216 0 0 1 282.697 35.723L277.568 35.723A117.087 117.087 0 0 0 117.952 35.723L112.823 35.723M112.823 211.477A122.216 122.216 0 0 0 282.697 211.477L277.568 211.477A117.087 117.087 0 0 1 117.952 211.477L112.823 211.477" fill="#ffffff" stroke="transparent" data-fill-palette-color="tertiary"></path></g></svg></g><defs></defs></svg><rect width="395.52" height="247.2" fill="none" stroke="none" visibility="hidden"></rect></g></svg></g></svg>